<?xml version="1.0" encoding="UTF-8"?>
<svg version="1.1" viewBox="0 0 1024 1024" width="1024" height="1024" xmlns="http://www.w3.org/2000/svg">
<path transform="translate(0)" d="m0 0h1024v1024h-1024z" fill="#FEFEFE"/>
<path transform="translate(178,144)" d="m0 0 265 1 12 4 28 15 27 15 28 15 23 13 23 12 22 12 28 15 21 12 22 13 21 12 24 13 22 12 30 16 23 13 28 15 18 10 25 15 16 8 9 6 4 6 1 3v10l-12 55-8 36-1 202-3 12-5 7-14 9-25 14-24 14-27 15-21 12-26 15-28 16-25 14-24 14-18 10-21 12-46 26-8 3-11 1-12-3-20-11-14-8-25-14-15-9-27-15-24-14-50-28-24-14-27-15-21-12-115-65-28-16-9-5-8-9-4-11v-202l4-11 6-8 7-6 23-12 22-12 26-14 18-10 26-14h2v-2l-6-2-28-15-22-12-28-15-22-12-20-11-7-8-2-7 1-10 6-21 12-35 14-43 5-13 8-7z" fill="#323335"/>
<path transform="translate(180,484)" d="m0 0 5 2 28 15 21 12 24 13 22 12 27 15 22 12 32 17 21 12 79 44 24 13 24 14 15 8v150l-15-8-24-14-24-13-24-14-24-13-21-12-50-28-21-12-25-14-23-13-27-15-21-12-27-15-17-10-1-1z" fill="#FEFEFE"/>
<path transform="translate(820,538)" d="m0 0 5 1v148l-27 15-29 16-26 15-25 14-24 14-27 15-24 14-18 10-24 14-21 12h-3l1-151 25-14 46-26 25-14 23-13 18-10 21-12 25-14 24-14 27-15z" fill="#FEFEFE"/>
<path transform="translate(205,205)" d="m0 0 6 2 46 25 23 13 29 16 28 15 23 13 28 15 23 13 26 14 68 37 22 12 23 12 1 3-14 43-3 8-5-2-34-18-27-14-22-12-28-15-23-13-25-14-23-13-83-46-23-13-26-15-29-15 2-6 10-28 6-13z" fill="#FEFEFE"/>
<path transform="translate(597,412)" d="m0 0 59 3 116 7 50 4 19 1-1 7-9 31-4 11h-25l-57-2-100-5-62-4 1-9 12-42z" fill="#FEFEFE"/>
</svg>