<?xml version="1.0" encoding="UTF-8"?>
<svg version="1.1" viewBox="0 0 1024 1024" width="1024" height="1024" xmlns="http://www.w3.org/2000/svg">
<path transform="translate(179,144)" d="m0 0 262 1 9 2 16 8 26 14 18 10 24 13 46 25 22 12 26 14 25 14 22 13 28 16 28 15 22 12 28 15 18 10 22 12 20 11 22 13 16 9 12 6 6 8 1 4v8l-11 51-9 40-1 201-3 14-8 9-15 9-49 28-25 14-24 14-25 14-24 14-27 15-24 14-25 14-23 13-28 16-12 6-4 1h-15l-11-4-24-14-29-16-15-9-27-15-21-12-26-15-27-15-24-14-27-15-42-24-25-14-24-14-22-12-21-12-18-10-16-9-9-6-6-8-4-10v-201l4-12 7-9 8-6 23-12 22-12 26-14 42-23h2v-2l-6-2-22-12-52-28-44-24-7-6-3-6v-14l7-24 22-65 7-21 6-7 5-3zm26 61-5 12-6 15-8 24 31 16 17 10 23 13 56 31 27 15 25 14 23 13 25 14 23 13 25 13 22 12 20 10 22 12 7 4h3l12-39 4-11-1-4-29-15-23-13-23-12-22-12-29-16-24-13-23-13-26-14-18-10-26-14-23-13-24-13-18-10-24-13-11-6zm392 207-3 8-10 36-1 9 28 2 67 4 85 4 30 1h34l8-24 6-21v-4l-42-3-40-3-154-9zm-417 72v146l22 12 23 13 25 14 21 12 27 15 21 12 18 10 23 13 25 14 23 13 25 14 23 13 25 14 23 13 19 11h1v-150l-22-12-17-10-26-14-23-13-24-13-23-13-43-24-34-18-21-12-28-15-29-16-25-14-24-13zm640 54-56 32-25 14-23 13-50 28-69 39-19 11-1 151 5-1 25-14 22-13 25-14 24-14 27-15 24-14 25-14 21-12 29-16 21-12v-148z" fill="#333336"/>
</svg>